<svg xmlns="http://www.w3.org/2000/svg" xmlns:xlink="http://www.w3.org/1999/xlink" width="300" zoomAndPan="magnify" viewBox="0 0 224.87999 56.249996" height="75" preserveAspectRatio="xMidYMid meet" version="1.0"><defs><g/></defs><g fill="#0d1b48" fill-opacity="1"><g transform="translate(1.488404, 36.476608)"><g><path d="M 12.828125 0 L 6.828125 -8.375 L 6.828125 0 L 1.515625 0 L 1.515625 -19.125 L 6.828125 -19.125 L 6.828125 -10.875 L 12.78125 -19.125 L 18.90625 -19.125 L 11.875 -9.84375 L 19.265625 0 Z M 12.828125 0 "/></g></g></g><g fill="#0d1b48" fill-opacity="1"><g transform="translate(21.176773, 36.476608)"><g><path d="M 13.609375 -3.125 L 6.828125 -3.125 L 5.8125 0 L 0.21875 0 L 7.1875 -19.125 L 13.3125 -19.125 L 20.265625 0 L 14.640625 0 Z M 12.28125 -7.1875 L 10.21875 -13.375 L 8.1875 -7.1875 Z M 12.28125 -7.1875 "/></g></g></g><g fill="#0d1b48" fill-opacity="1"><g transform="translate(41.651593, 36.476608)"><g><path d="M 14.1875 -19.125 L 14.1875 -6.453125 C 14.1875 -4.304688 13.601562 -2.660156 12.4375 -1.515625 C 11.269531 -0.378906 9.664062 0.1875 7.625 0.1875 C 5.445312 0.1875 3.710938 -0.414062 2.421875 -1.625 C 1.128906 -2.832031 0.484375 -4.578125 0.484375 -6.859375 L 5.75 -6.859375 C 5.769531 -5.359375 6.320312 -4.609375 7.40625 -4.609375 C 8.382812 -4.609375 8.875 -5.222656 8.875 -6.453125 L 8.875 -19.125 Z M 14.1875 -19.125 "/></g></g></g><g fill="#0d1b48" fill-opacity="1"><g transform="translate(57.489071, 36.476608)"><g><path d="M 6.828125 -19.125 L 6.828125 0 L 1.515625 0 L 1.515625 -19.125 Z M 6.828125 -19.125 "/></g></g></g><g fill="#0d1b48" fill-opacity="1"><g transform="translate(65.841714, 36.476608)"><g><path d="M 13.609375 -3.125 L 6.828125 -3.125 L 5.8125 0 L 0.21875 0 L 7.1875 -19.125 L 13.3125 -19.125 L 20.265625 0 L 14.640625 0 Z M 12.28125 -7.1875 L 10.21875 -13.375 L 8.1875 -7.1875 Z M 12.28125 -7.1875 "/></g></g></g><g fill="#0d1b48" fill-opacity="1"><g transform="translate(86.316534, 36.476608)"><g><path d="M 9.09375 -19.125 C 11.09375 -19.125 12.847656 -18.71875 14.359375 -17.90625 C 15.867188 -17.101562 17.03125 -15.976562 17.84375 -14.53125 C 18.65625 -13.09375 19.0625 -11.441406 19.0625 -9.578125 C 19.0625 -7.734375 18.648438 -6.085938 17.828125 -4.640625 C 17.003906 -3.191406 15.835938 -2.054688 14.328125 -1.234375 C 12.828125 -0.410156 11.082031 0 9.09375 0 L 1.515625 0 L 1.515625 -19.125 Z M 8.6875 -4.6875 C 10.238281 -4.6875 11.457031 -5.113281 12.34375 -5.96875 C 13.226562 -6.820312 13.671875 -8.023438 13.671875 -9.578125 C 13.671875 -11.148438 13.226562 -12.363281 12.34375 -13.21875 C 11.457031 -14.082031 10.238281 -14.515625 8.6875 -14.515625 L 6.828125 -14.515625 L 6.828125 -4.6875 Z M 8.6875 -4.6875 "/></g></g></g><g fill="#0d1b48" fill-opacity="1"><g transform="translate(106.248976, 36.476608)"><g><path d="M 10.6875 0.1875 C 8.894531 0.1875 7.25 -0.226562 5.75 -1.0625 C 4.25 -1.90625 3.0625 -3.070312 2.1875 -4.5625 C 1.3125 -6.0625 0.875 -7.75 0.875 -9.625 C 0.875 -11.507812 1.3125 -13.195312 2.1875 -14.6875 C 3.0625 -16.175781 4.25 -17.335938 5.75 -18.171875 C 7.25 -19.003906 8.894531 -19.421875 10.6875 -19.421875 C 12.5 -19.421875 14.148438 -19.003906 15.640625 -18.171875 C 17.128906 -17.335938 18.304688 -16.175781 19.171875 -14.6875 C 20.046875 -13.195312 20.484375 -11.507812 20.484375 -9.625 C 20.484375 -7.75 20.046875 -6.0625 19.171875 -4.5625 C 18.304688 -3.070312 17.125 -1.90625 15.625 -1.0625 C 14.125 -0.226562 12.476562 0.1875 10.6875 0.1875 Z M 10.6875 -4.75 C 12.039062 -4.75 13.109375 -5.191406 13.890625 -6.078125 C 14.679688 -6.960938 15.078125 -8.144531 15.078125 -9.625 C 15.078125 -11.144531 14.679688 -12.34375 13.890625 -13.21875 C 13.109375 -14.09375 12.039062 -14.53125 10.6875 -14.53125 C 9.3125 -14.53125 8.234375 -14.09375 7.453125 -13.21875 C 6.679688 -12.34375 6.296875 -11.144531 6.296875 -9.625 C 6.296875 -8.125 6.679688 -6.9375 7.453125 -6.0625 C 8.234375 -5.1875 9.3125 -4.75 10.6875 -4.75 Z M 10.6875 -4.75 "/></g></g></g><g fill="#0d1b48" fill-opacity="1"><g transform="translate(127.591603, 36.476608)"><g/></g></g><g fill="#c33c54" fill-opacity="1"><g transform="translate(132.76786, 36.476608)"><g><path d="M 13.609375 -3.125 L 6.828125 -3.125 L 5.8125 0 L 0.21875 0 L 7.1875 -19.125 L 13.3125 -19.125 L 20.265625 0 L 14.640625 0 Z M 12.28125 -7.1875 L 10.21875 -13.375 L 8.1875 -7.1875 Z M 12.28125 -7.1875 "/></g></g></g><g fill="#c33c54" fill-opacity="1"><g transform="translate(153.24268, 36.476608)"><g><path d="M 0.875 -9.609375 C 0.875 -11.484375 1.265625 -13.15625 2.046875 -14.625 C 2.835938 -16.101562 3.953125 -17.253906 5.390625 -18.078125 C 6.835938 -18.898438 8.503906 -19.3125 10.390625 -19.3125 C 12.773438 -19.3125 14.78125 -18.671875 16.40625 -17.390625 C 18.039062 -16.117188 19.09375 -14.390625 19.5625 -12.203125 L 13.828125 -12.203125 C 13.484375 -12.929688 13.007812 -13.484375 12.40625 -13.859375 C 11.800781 -14.242188 11.101562 -14.4375 10.3125 -14.4375 C 9.082031 -14.4375 8.097656 -13.992188 7.359375 -13.109375 C 6.628906 -12.234375 6.265625 -11.066406 6.265625 -9.609375 C 6.265625 -8.117188 6.628906 -6.9375 7.359375 -6.0625 C 8.097656 -5.1875 9.082031 -4.75 10.3125 -4.75 C 11.101562 -4.75 11.800781 -4.9375 12.40625 -5.3125 C 13.007812 -5.695312 13.484375 -6.25 13.828125 -6.96875 L 19.5625 -6.96875 C 19.09375 -4.78125 18.039062 -3.046875 16.40625 -1.765625 C 14.78125 -0.492188 12.773438 0.140625 10.390625 0.140625 C 8.503906 0.140625 6.835938 -0.269531 5.390625 -1.09375 C 3.953125 -1.914062 2.835938 -3.0625 2.046875 -4.53125 C 1.265625 -6.007812 0.875 -7.703125 0.875 -9.609375 Z M 0.875 -9.609375 "/></g></g></g><g fill="#c33c54" fill-opacity="1"><g transform="translate(173.798857, 36.476608)"><g><path d="M 11.203125 0 L 7.40625 -7.046875 L 6.828125 -7.046875 L 6.828125 0 L 1.515625 0 L 1.515625 -19.125 L 9.90625 -19.125 C 11.4375 -19.125 12.734375 -18.851562 13.796875 -18.3125 C 14.867188 -17.78125 15.675781 -17.050781 16.21875 -16.125 C 16.757812 -15.195312 17.03125 -14.15625 17.03125 -13 C 17.03125 -11.695312 16.671875 -10.550781 15.953125 -9.5625 C 15.242188 -8.570312 14.203125 -7.867188 12.828125 -7.453125 L 17.140625 0 Z M 6.828125 -10.6875 L 9.46875 -10.6875 C 10.1875 -10.6875 10.726562 -10.859375 11.09375 -11.203125 C 11.457031 -11.546875 11.640625 -12.039062 11.640625 -12.6875 C 11.640625 -13.300781 11.453125 -13.785156 11.078125 -14.140625 C 10.710938 -14.492188 10.175781 -14.671875 9.46875 -14.671875 L 6.828125 -14.671875 Z M 6.828125 -10.6875 "/></g></g></g><g fill="#c33c54" fill-opacity="1"><g transform="translate(191.724507, 36.476608)"><g><path d="M 6.828125 -14.859375 L 6.828125 -11.75 L 12.9375 -11.75 L 12.9375 -7.703125 L 6.828125 -7.703125 L 6.828125 -4.265625 L 13.75 -4.265625 L 13.75 0 L 1.515625 0 L 1.515625 -19.125 L 13.75 -19.125 L 13.75 -14.859375 Z M 6.828125 -14.859375 "/></g></g></g><g fill="#c33c54" fill-opacity="1"><g transform="translate(206.585717, 36.476608)"><g><path d="M 8.734375 0.1875 C 6.503906 0.1875 4.675781 -0.335938 3.25 -1.390625 C 1.820312 -2.453125 1.054688 -3.96875 0.953125 -5.9375 L 6.625 -5.9375 C 6.675781 -5.269531 6.875 -4.78125 7.21875 -4.46875 C 7.5625 -4.164062 8.003906 -4.015625 8.546875 -4.015625 C 9.035156 -4.015625 9.4375 -4.132812 9.75 -4.375 C 10.0625 -4.625 10.21875 -4.960938 10.21875 -5.390625 C 10.21875 -5.953125 9.957031 -6.382812 9.4375 -6.6875 C 8.914062 -7 8.066406 -7.347656 6.890625 -7.734375 C 5.640625 -8.148438 4.628906 -8.550781 3.859375 -8.9375 C 3.097656 -9.320312 2.429688 -9.890625 1.859375 -10.640625 C 1.285156 -11.390625 1 -12.375 1 -13.59375 C 1 -14.820312 1.304688 -15.875 1.921875 -16.75 C 2.535156 -17.625 3.382812 -18.285156 4.46875 -18.734375 C 5.5625 -19.191406 6.796875 -19.421875 8.171875 -19.421875 C 10.390625 -19.421875 12.160156 -18.898438 13.484375 -17.859375 C 14.816406 -16.816406 15.53125 -15.359375 15.625 -13.484375 L 9.84375 -13.484375 C 9.820312 -14.054688 9.644531 -14.488281 9.3125 -14.78125 C 8.976562 -15.070312 8.550781 -15.21875 8.03125 -15.21875 C 7.632812 -15.21875 7.304688 -15.097656 7.046875 -14.859375 C 6.796875 -14.628906 6.671875 -14.296875 6.671875 -13.859375 C 6.671875 -13.492188 6.8125 -13.179688 7.09375 -12.921875 C 7.375 -12.660156 7.722656 -12.4375 8.140625 -12.25 C 8.554688 -12.0625 9.171875 -11.820312 9.984375 -11.53125 C 11.191406 -11.113281 12.1875 -10.703125 12.96875 -10.296875 C 13.757812 -9.890625 14.441406 -9.316406 15.015625 -8.578125 C 15.585938 -7.847656 15.875 -6.925781 15.875 -5.8125 C 15.875 -4.664062 15.585938 -3.640625 15.015625 -2.734375 C 14.441406 -1.835938 13.617188 -1.125 12.546875 -0.59375 C 11.472656 -0.0703125 10.203125 0.1875 8.734375 0.1875 Z M 8.734375 0.1875 "/></g></g></g></svg>