<svg xmlns="http://www.w3.org/2000/svg" xmlns:xlink="http://www.w3.org/1999/xlink" width="500" zoomAndPan="magnify" viewBox="0 0 375 374.999991" height="500" preserveAspectRatio="xMidYMid meet" version="1.0"><defs><g/><clipPath id="5ac4bb6555"><path d="M 50 58 L 318 58 L 318 325 L 50 325 Z M 50 58 " clip-rule="nonzero"/></clipPath><clipPath id="96630b19c6"><path d="M 188.445312 1.929688 L 334.148438 154.199219 L 140.148438 339.824219 L -5.550781 187.554688 Z M 188.445312 1.929688 " clip-rule="nonzero"/></clipPath><clipPath id="4fd31fa638"><path d="M 188.445312 1.929688 L 374.074219 195.925781 L 180.074219 381.550781 L -5.550781 187.554688 Z M 188.445312 1.929688 " clip-rule="nonzero"/></clipPath><clipPath id="1d9754d1cd"><path d="M 243.648438 211.566406 L 257.148438 211.566406 L 257.148438 225.066406 L 243.648438 225.066406 Z M 243.648438 211.566406 " clip-rule="nonzero"/></clipPath></defs><rect x="-37.5" width="450" fill="#ffffff" y="-37.499999" height="449.999989" fill-opacity="1"/><rect x="-37.5" width="450" fill="#ffffff" y="-37.499999" height="449.999989" fill-opacity="1"/><rect x="-37.5" width="450" fill="#ffffff" y="-37.499999" height="449.999989" fill-opacity="1"/><g clip-path="url(#5ac4bb6555)"><g clip-path="url(#96630b19c6)"><g clip-path="url(#4fd31fa638)"><path fill="#0787ea" d="M 245.46875 307.484375 C 234.742188 313.039062 223.203125 316.882812 211.429688 319.222656 C 201.792969 321.074219 192.011719 322.054688 182.21875 322.007812 C 180.914062 322.039062 179.613281 321.921875 178.3125 321.875 C 177.011719 321.804688 175.707031 321.777344 174.40625 321.675781 L 170.515625 321.320312 L 168.566406 321.140625 L 166.632812 320.878906 L 162.757812 320.359375 C 161.46875 320.15625 160.191406 319.902344 158.90625 319.679688 C 156.328125 319.28125 153.800781 318.652344 151.246094 318.105469 C 150.878906 318.027344 150.496094 317.941406 150.09375 317.855469 C 149.699219 317.746094 149.289062 317.632812 148.859375 317.519531 C 148.003906 317.28125 147.082031 317.027344 146.105469 316.757812 C 144.128906 316.261719 141.984375 315.492188 139.613281 314.710938 C 139.027344 314.507812 138.417969 314.324219 137.808594 314.09375 C 137.203125 313.859375 136.589844 313.617188 135.960938 313.371094 C 134.707031 312.878906 133.40625 312.367188 132.0625 311.839844 C 129.453125 310.625 126.609375 309.476562 123.792969 307.945312 C 112.3125 302.265625 99.96875 293.269531 89.496094 282.414062 C 79.113281 271.472656 70.671875 258.746094 65.5 247.027344 C 64.097656 244.144531 63.074219 241.253906 61.976562 238.589844 C 61.507812 237.226562 61.054688 235.90625 60.617188 234.632812 C 60.402344 233.992188 60.1875 233.367188 59.976562 232.753906 C 59.773438 232.136719 59.617188 231.519531 59.441406 230.921875 C 58.761719 228.523438 58.089844 226.34375 57.679688 224.347656 C 57.453125 223.359375 57.242188 222.425781 57.046875 221.5625 C 56.945312 221.128906 56.851562 220.714844 56.761719 220.3125 C 56.691406 219.910156 56.625 219.519531 56.5625 219.152344 C 54.777344 209.519531 53.859375 199.738281 53.972656 189.945312 C 54.199219 179.515625 55.703125 169.144531 58.097656 158.980469 C 60.953125 147.316406 65.304688 135.960938 71.324219 125.488281 C 77.222656 114.941406 84.847656 105.378906 93.535156 96.921875 C 102.367188 88.617188 112.257812 81.417969 123.054688 75.996094 C 133.78125 70.441406 145.316406 66.597656 157.09375 64.253906 C 166.726562 62.40625 176.507812 61.425781 186.300781 61.472656 C 187.605469 61.441406 188.90625 61.554688 190.210938 61.601562 C 191.511719 61.671875 192.816406 61.703125 194.113281 61.800781 L 198.007812 62.160156 L 199.953125 62.335938 L 201.890625 62.601562 L 205.765625 63.121094 C 207.050781 63.324219 208.328125 63.578125 209.613281 63.796875 C 212.191406 64.199219 214.722656 64.828125 217.273438 65.371094 C 217.640625 65.453125 218.023438 65.539062 218.425781 65.625 C 218.820312 65.734375 219.234375 65.84375 219.660156 65.960938 C 220.515625 66.195312 221.4375 66.449219 222.417969 66.722656 C 224.390625 67.21875 226.539062 67.988281 228.90625 68.765625 C 229.496094 68.96875 230.105469 69.15625 230.710938 69.386719 C 231.316406 69.621094 231.933594 69.863281 232.5625 70.109375 C 233.816406 70.601562 235.117188 71.113281 236.457031 71.640625 C 239.070312 72.851562 241.914062 74.003906 244.726562 75.53125 C 256.210938 81.214844 268.550781 90.210938 279.027344 101.066406 C 289.40625 112.007812 297.847656 124.734375 303.019531 136.453125 C 304.421875 139.335938 305.445312 142.222656 306.542969 144.890625 C 307.011719 146.25 307.464844 147.574219 307.902344 148.847656 C 308.121094 149.484375 308.335938 150.113281 308.542969 150.726562 C 308.746094 151.34375 308.902344 151.960938 309.082031 152.558594 C 309.757812 154.957031 310.429688 157.136719 310.839844 159.128906 C 311.066406 160.121094 311.277344 161.050781 311.476562 161.917969 C 311.574219 162.347656 311.667969 162.765625 311.757812 163.167969 C 311.828125 163.570312 311.894531 163.957031 311.960938 164.328125 C 313.746094 173.960938 314.660156 183.742188 314.546875 193.535156 C 314.324219 203.964844 312.816406 214.335938 310.421875 224.5 C 307.566406 236.164062 303.214844 247.519531 297.195312 257.992188 C 291.300781 268.535156 283.671875 278.101562 274.988281 286.558594 C 266.15625 294.863281 256.265625 302.058594 245.46875 307.484375 Z M 277.136719 288.675781 L 277.144531 288.667969 C 286.011719 280.03125 293.808594 270.265625 299.847656 259.492188 C 306.011719 248.796875 310.460938 237.183594 313.347656 225.261719 L 314.601562 219.652344 C 314.601562 219.652344 314.898438 218.097656 315.335938 215.765625 C 315.84375 213.445312 316.191406 210.296875 316.652344 207.167969 C 316.917969 204.015625 317.296875 200.875 317.335938 198.503906 C 317.441406 196.132812 317.507812 194.554688 317.507812 194.554688 C 317.507812 194.554688 317.519531 194.160156 317.523438 193.46875 C 317.523438 192.777344 317.53125 191.789062 317.535156 190.605469 C 317.609375 188.230469 317.417969 185.078125 317.292969 181.917969 C 317.179688 180.34375 317.015625 178.769531 316.890625 177.292969 C 316.820312 176.554688 316.757812 175.84375 316.695312 175.167969 C 316.601562 174.496094 316.511719 173.859375 316.429688 173.269531 C 316.105469 170.921875 315.886719 169.355469 315.886719 169.355469 C 315.886719 169.355469 315.855469 169 315.753906 168.46875 C 315.660156 167.941406 315.539062 167.234375 315.414062 166.527344 C 315.167969 165.113281 314.917969 163.699219 314.917969 163.699219 C 314.855469 163.320312 314.785156 162.925781 314.714844 162.511719 C 314.625 162.101562 314.53125 161.675781 314.429688 161.230469 C 314.230469 160.34375 314.015625 159.390625 313.785156 158.378906 C 313.371094 156.335938 312.6875 154.105469 311.996094 151.648438 C 311.816406 151.039062 311.652344 150.40625 311.449219 149.773438 C 311.234375 149.144531 311.015625 148.503906 310.796875 147.851562 C 310.347656 146.542969 309.886719 145.191406 309.410156 143.792969 C 308.289062 141.066406 307.242188 138.109375 305.808594 135.160156 C 300.523438 123.15625 291.886719 110.121094 281.257812 98.925781 C 270.546875 87.816406 257.902344 78.613281 246.144531 72.804688 C 243.261719 71.242188 240.351562 70.0625 237.675781 68.828125 C 236.300781 68.289062 234.972656 67.765625 233.683594 67.261719 C 233.042969 67.011719 232.410156 66.765625 231.792969 66.523438 C 231.171875 66.292969 230.546875 66.101562 229.941406 65.894531 C 227.519531 65.097656 225.320312 64.316406 223.300781 63.8125 C 222.296875 63.535156 221.355469 63.28125 220.476562 63.039062 C 220.039062 62.921875 219.617188 62.808594 219.210938 62.699219 C 218.800781 62.609375 218.40625 62.523438 218.03125 62.445312 C 218.03125 62.445312 216.632812 62.132812 215.230469 61.824219 C 214.527344 61.671875 213.828125 61.515625 213.304688 61.398438 C 212.78125 61.273438 212.425781 61.230469 212.425781 61.230469 C 212.425781 61.230469 210.871094 60.941406 208.539062 60.511719 C 207.953125 60.40625 207.324219 60.289062 206.65625 60.164062 C 205.984375 60.074219 205.273438 59.976562 204.539062 59.878906 C 203.070312 59.683594 201.507812 59.449219 199.9375 59.269531 C 196.785156 59.007812 193.644531 58.675781 191.269531 58.644531 C 190.085938 58.597656 189.097656 58.558594 188.40625 58.53125 C 187.71875 58.503906 187.320312 58.5 187.320312 58.5 C 187.320312 58.5 185.742188 58.496094 183.371094 58.496094 C 181 58.429688 177.84375 58.671875 174.683594 58.796875 C 171.539062 59.121094 168.378906 59.328125 166.035156 59.730469 C 163.6875 60.070312 162.121094 60.292969 162.121094 60.292969 L 156.464844 61.300781 C 144.421875 63.65625 132.625 67.59375 121.667969 73.277344 C 110.640625 78.835938 100.542969 86.195312 91.519531 94.675781 L 91.511719 94.679688 L 91.449219 94.742188 L 91.382812 94.804688 L 91.378906 94.8125 C 82.511719 103.449219 74.710938 113.214844 68.671875 123.984375 C 62.511719 134.683594 58.058594 146.292969 55.175781 158.21875 L 53.917969 163.828125 C 53.917969 163.828125 53.625 165.382812 53.183594 167.714844 C 52.679688 170.035156 52.332031 173.183594 51.871094 176.3125 C 51.605469 179.464844 51.222656 182.605469 51.183594 184.976562 C 51.082031 187.34375 51.011719 188.925781 51.011719 188.925781 C 51.011719 188.925781 51 189.320312 51 190.011719 C 50.996094 190.703125 50.988281 191.6875 50.984375 192.875 C 50.910156 195.246094 51.105469 198.402344 51.230469 201.5625 C 51.339844 203.136719 51.503906 204.707031 51.632812 206.183594 C 51.699219 206.921875 51.765625 207.636719 51.828125 208.3125 C 51.921875 208.984375 52.007812 209.621094 52.089844 210.207031 C 52.417969 212.558594 52.636719 214.121094 52.636719 214.121094 C 52.636719 214.121094 52.664062 214.480469 52.765625 215.007812 C 52.859375 215.539062 52.984375 216.246094 53.105469 216.953125 C 53.355469 218.367188 53.601562 219.78125 53.601562 219.78125 C 53.667969 220.15625 53.734375 220.554688 53.804688 220.96875 C 53.894531 221.378906 53.992188 221.804688 54.089844 222.25 C 54.289062 223.136719 54.507812 224.085938 54.734375 225.101562 C 55.152344 227.140625 55.835938 229.375 56.523438 231.832031 C 56.703125 232.441406 56.867188 233.074219 57.074219 233.707031 C 57.285156 234.335938 57.503906 234.976562 57.726562 235.628906 C 58.171875 236.933594 58.636719 238.289062 59.113281 239.683594 C 60.230469 242.414062 61.28125 245.371094 62.710938 248.320312 C 68 260.320312 76.636719 273.359375 87.261719 284.554688 C 97.976562 295.660156 110.621094 304.863281 122.378906 310.675781 C 125.261719 312.234375 128.171875 313.414062 130.847656 314.652344 C 132.21875 315.191406 133.550781 315.714844 134.835938 316.214844 C 135.480469 316.46875 136.109375 316.714844 136.730469 316.953125 C 137.351562 317.1875 137.976562 317.378906 138.578125 317.585938 C 141.003906 318.382812 143.203125 319.164062 145.222656 319.667969 C 146.226562 319.941406 147.167969 320.199219 148.042969 320.4375 C 148.480469 320.558594 148.90625 320.671875 149.308594 320.78125 C 149.722656 320.867188 150.113281 320.953125 150.488281 321.035156 C 150.488281 321.035156 151.890625 321.34375 153.292969 321.65625 C 153.992188 321.808594 154.691406 321.964844 155.21875 322.078125 C 155.738281 322.203125 156.097656 322.25 156.097656 322.25 C 156.097656 322.25 157.652344 322.535156 159.984375 322.964844 C 160.566406 323.074219 161.199219 323.191406 161.863281 323.3125 C 162.539062 323.40625 163.246094 323.503906 163.980469 323.601562 C 165.453125 323.792969 167.015625 324.027344 168.585938 324.210938 C 171.734375 324.472656 174.878906 324.804688 177.25 324.835938 C 178.433594 324.882812 179.421875 324.921875 180.113281 324.949219 C 180.804688 324.976562 181.199219 324.980469 181.199219 324.980469 C 181.199219 324.980469 182.78125 324.980469 185.148438 324.984375 C 187.523438 325.050781 190.675781 324.808594 193.835938 324.679688 C 196.984375 324.359375 200.144531 324.152344 202.484375 323.75 C 204.835938 323.410156 206.398438 323.183594 206.398438 323.183594 L 212.058594 322.179688 C 224.097656 319.824219 235.894531 315.886719 246.851562 310.203125 C 257.878906 304.644531 267.980469 297.28125 277 288.804688 L 277.007812 288.800781 L 277.074219 288.738281 L 277.136719 288.675781 " fill-opacity="1" fill-rule="nonzero"/></g></g></g><g fill="#0787ea" fill-opacity="1"><g transform="translate(165.343065, 308.076847)"><g><path d="M 7.765625 2.84375 L 7.921875 0.046875 L 4.09375 -1.359375 L 2.40625 0.890625 L 0 0 L 7.59375 -9.203125 L 10.3125 -8.203125 L 10.171875 3.734375 Z M 8.078125 -2 C 8.203125 -4.53125 8.273438 -5.957031 8.296875 -6.28125 C 8.328125 -6.613281 8.351562 -6.875 8.375 -7.0625 C 7.988281 -6.507812 6.972656 -5.15625 5.328125 -3 Z M 8.078125 -2 "/></g></g></g><g fill="#0787ea" fill-opacity="1"><g transform="translate(182.555127, 313.687531)"><g><path d="M 4.796875 -5.484375 L 5.5625 -5.34375 C 6.300781 -5.21875 6.867188 -5.242188 7.265625 -5.421875 C 7.660156 -5.609375 7.90625 -5.96875 8 -6.5 C 8.09375 -7.03125 7.976562 -7.4375 7.65625 -7.71875 C 7.332031 -8 6.800781 -8.207031 6.0625 -8.34375 L 5.328125 -8.46875 Z M 4.46875 -3.578125 L 3.71875 0.65625 L 1.390625 0.25 L 3.34375 -10.78125 L 6.546875 -10.21875 C 8.054688 -9.945312 9.117188 -9.476562 9.734375 -8.8125 C 10.359375 -8.144531 10.578125 -7.253906 10.390625 -6.140625 C 10.265625 -5.484375 9.976562 -4.9375 9.53125 -4.5 C 9.082031 -4.0625 8.503906 -3.753906 7.796875 -3.578125 C 9.023438 -0.804688 9.828125 0.984375 10.203125 1.796875 L 7.609375 1.34375 L 5.71875 -3.359375 Z M 4.46875 -3.578125 "/></g></g></g><g fill="#0787ea" fill-opacity="1"><g transform="translate(200.077822, 316.201488)"><g><path d="M 11.359375 -0.140625 L 8.328125 -0.09375 L 3.359375 -8.53125 L 3.296875 -8.53125 C 3.398438 -7.03125 3.457031 -5.960938 3.46875 -5.328125 L 3.53125 -0.046875 L 1.40625 -0.015625 L 1.265625 -11.21875 L 4.265625 -11.25 L 9.25 -2.921875 L 9.296875 -2.921875 C 9.203125 -4.378906 9.148438 -5.410156 9.140625 -6.015625 L 9.078125 -11.3125 L 11.21875 -11.34375 Z M 11.359375 -0.140625 "/></g></g></g><g fill="#0787ea" fill-opacity="1"><g transform="translate(220.21325, 315.215482)"><g><path d="M 10.15625 -7.90625 C 10.539062 -6.09375 10.390625 -4.601562 9.703125 -3.4375 C 9.015625 -2.269531 7.828125 -1.503906 6.140625 -1.140625 C 4.460938 -0.785156 3.066406 -1 1.953125 -1.78125 C 0.847656 -2.570312 0.101562 -3.878906 -0.28125 -5.703125 C -0.675781 -7.523438 -0.523438 -9.015625 0.171875 -10.171875 C 0.878906 -11.328125 2.070312 -12.085938 3.75 -12.453125 C 5.4375 -12.804688 6.828125 -12.585938 7.921875 -11.796875 C 9.023438 -11.015625 9.769531 -9.71875 10.15625 -7.90625 Z M 2.15625 -6.203125 C 2.414062 -4.972656 2.84375 -4.097656 3.4375 -3.578125 C 4.03125 -3.054688 4.789062 -2.894531 5.71875 -3.09375 C 7.570312 -3.488281 8.238281 -4.921875 7.71875 -7.390625 C 7.195312 -9.859375 6.015625 -10.898438 4.171875 -10.515625 C 3.242188 -10.316406 2.609375 -9.851562 2.265625 -9.125 C 1.929688 -8.394531 1.894531 -7.421875 2.15625 -6.203125 Z M 2.15625 -6.203125 "/></g></g></g><g fill="#0787ea" fill-opacity="1"><g transform="translate(239.358164, 310.309092)"><g><path d="M 1.296875 -0.53125 L -2.9375 -10.90625 L -0.734375 -11.796875 L 2.75 -3.25 L 6.953125 -4.96875 L 7.703125 -3.140625 Z M 1.296875 -0.53125 "/></g></g></g><g fill="#0787ea" fill-opacity="1"><g transform="translate(254.089774, 303.745609)"><g><path d="M 6.03125 -10.546875 C 7.019531 -8.972656 7.328125 -7.488281 6.953125 -6.09375 C 6.585938 -4.707031 5.5625 -3.488281 3.875 -2.4375 L 1.1875 -0.75 L -4.765625 -10.234375 L -1.765625 -12.109375 C -0.222656 -13.078125 1.226562 -13.425781 2.59375 -13.15625 C 3.96875 -12.882812 5.113281 -12.015625 6.03125 -10.546875 Z M 3.96875 -9.1875 C 2.695312 -11.21875 1.160156 -11.664062 -0.640625 -10.53125 L -1.71875 -9.859375 L 2.15625 -3.6875 L 3.03125 -4.234375 C 4.96875 -5.453125 5.28125 -7.101562 3.96875 -9.1875 Z M 3.96875 -9.1875 "/></g></g></g><g fill="#0787ea" fill-opacity="1"><g transform="translate(269.498158, 293.119226)"><g/></g></g><g fill="#0787ea" fill-opacity="1"><g transform="translate(277.886638, 285.642231)"><g><path d="M 7.390625 -8.625 L 5.421875 -6.328125 L -4.1875 -8.140625 L -4.234375 -8.09375 C -3.035156 -7.1875 -2.195312 -6.53125 -1.71875 -6.125 L 2.296875 -2.6875 L 0.921875 -1.0625 L -7.59375 -8.34375 L -5.65625 -10.625 L 3.890625 -8.875 L 3.921875 -8.90625 C 2.773438 -9.800781 1.972656 -10.445312 1.515625 -10.84375 L -2.515625 -14.28125 L -1.125 -15.90625 Z M 7.390625 -8.625 "/></g></g></g><g fill="#0787ea" fill-opacity="1"><g transform="translate(290.38472, 269.862214)"><g><path d="M 0.296875 -12.140625 C 1.910156 -11.234375 2.882812 -10.078125 3.21875 -8.671875 C 3.550781 -7.273438 3.226562 -5.710938 2.25 -3.984375 L 0.6875 -1.21875 L -9.0625 -6.734375 L -7.3125 -9.8125 C -6.414062 -11.394531 -5.296875 -12.390625 -3.953125 -12.796875 C -2.617188 -13.210938 -1.203125 -12.992188 0.296875 -12.140625 Z M -0.859375 -9.96875 C -2.953125 -11.15625 -4.523438 -10.816406 -5.578125 -8.953125 L -6.203125 -7.859375 L 0.140625 -4.265625 L 0.65625 -5.15625 C 1.78125 -7.15625 1.273438 -8.757812 -0.859375 -9.96875 Z M -0.859375 -9.96875 "/></g></g></g><g fill="#0787ea" fill-opacity="1"><g transform="translate(299.011578, 253.08692)"><g><path d="M 2.640625 -7.40625 L 0.46875 -1.328125 L -10.09375 -5.078125 L -7.921875 -11.15625 L -6.09375 -10.515625 L -7.46875 -6.671875 L -5.140625 -5.84375 L -3.859375 -9.421875 L -2.03125 -8.765625 L -3.3125 -5.1875 L -0.59375 -4.21875 L 0.78125 -8.0625 Z M 2.640625 -7.40625 "/></g></g></g><g fill="#0787ea" fill-opacity="1"><g transform="translate(303.871951, 237.835382)"><g><path d="M -5.484375 -4.8125 L -5.34375 -5.578125 C -5.207031 -6.316406 -5.226562 -6.878906 -5.40625 -7.265625 C -5.59375 -7.660156 -5.953125 -7.90625 -6.484375 -8 C -7.015625 -8.09375 -7.421875 -7.976562 -7.703125 -7.65625 C -7.992188 -7.34375 -8.203125 -6.816406 -8.328125 -6.078125 L -8.46875 -5.34375 Z M -3.578125 -4.46875 L 0.65625 -3.71875 L 0.25 -1.390625 L -10.78125 -3.34375 L -10.21875 -6.546875 C -9.945312 -8.054688 -9.476562 -9.125 -8.8125 -9.75 C -8.144531 -10.375 -7.253906 -10.585938 -6.140625 -10.390625 C -5.484375 -10.273438 -4.9375 -9.992188 -4.5 -9.546875 C -4.0625 -9.097656 -3.753906 -8.519531 -3.578125 -7.8125 C -0.804688 -9.03125 0.988281 -9.828125 1.8125 -10.203125 L 1.359375 -7.609375 L -3.359375 -5.71875 Z M -3.578125 -4.46875 "/></g></g></g><g fill="#0787ea" fill-opacity="1"><g transform="translate(306.221205, 220.534352)"><g><path d="M 0.046875 -1.40625 L -11.15625 -1.71875 L -11.09375 -4.09375 L 0.109375 -3.78125 Z M 0.046875 -1.40625 "/></g></g></g><g fill="#0787ea" fill-opacity="1"><g transform="translate(306.208895, 208.264565)"><g><path d="M -0.640625 -5.703125 L -0.375 -3.34375 L -9.546875 -2.3125 L -9.203125 0.71875 L -11.15625 0.9375 L -12.109375 -7.46875 L -10.15625 -7.6875 L -9.8125 -4.671875 Z M -0.640625 -5.703125 "/></g></g></g><g fill="#0787ea" fill-opacity="1"><g transform="translate(303.866286, 192.06942)"><g><path d="M -13.734375 -6.921875 L -6.78125 -8.96875 C -5.988281 -9.207031 -5.238281 -9.238281 -4.53125 -9.0625 C -3.832031 -8.882812 -3.222656 -8.507812 -2.703125 -7.9375 C -2.179688 -7.363281 -1.785156 -6.617188 -1.515625 -5.703125 C -1.109375 -4.304688 -1.144531 -3.125 -1.625 -2.15625 C -2.113281 -1.1875 -2.972656 -0.519531 -4.203125 -0.15625 L -11.125 1.890625 L -11.796875 -0.375 L -5.21875 -2.3125 C -4.382812 -2.5625 -3.820312 -2.910156 -3.53125 -3.359375 C -3.25 -3.816406 -3.222656 -4.425781 -3.453125 -5.1875 C -3.671875 -5.925781 -4.023438 -6.40625 -4.515625 -6.625 C -5.003906 -6.851562 -5.664062 -6.847656 -6.5 -6.609375 L -13.0625 -4.671875 Z M -13.734375 -6.921875 "/></g></g></g><g fill="#0787ea" fill-opacity="1"><g transform="translate(120.287185, 238.832617)"><g><path d="M 95.78125 0 L 80.21875 -39.765625 L 30.109375 -39.765625 L 14.703125 0 L 0 0 L 49.4375 -125.546875 L 61.65625 -125.546875 L 110.84375 0 Z M 75.6875 -52.859375 L 61.15625 -91.59375 C 59.269531 -96.5 57.328125 -102.515625 55.328125 -109.640625 C 54.078125 -104.171875 52.285156 -98.15625 49.953125 -91.59375 L 35.234375 -52.859375 Z M 75.6875 -52.859375 "/></g></g></g><g clip-path="url(#1d9754d1cd)"><path fill="#0787ea" d="M 250.398438 211.566406 C 246.671875 211.566406 243.648438 214.589844 243.648438 218.316406 C 243.648438 222.046875 246.671875 225.066406 250.398438 225.066406 C 254.128906 225.066406 257.148438 222.046875 257.148438 218.316406 C 257.148438 214.589844 254.128906 211.566406 250.398438 211.566406 " fill-opacity="1" fill-rule="nonzero"/></g></svg>